# xmcd CD database file
#
# Track frame offsets:
#	150
#	14345
#	31807
#	47290
#	64775
#	83070
#	100182
#	112742
#	130702
#	148727
#	165720
#
# Disc length: 2454 seconds
#
# Revision: 2
# Processed by: cddbd v1.5.2PL0 Copyright (c) Steve Scherf et al.
# Submitted via: jetAudio 7
#
DISCID=7f09940b
DTITLE=謝霆鋒 - Horizons
DYEAR=1998
DGENRE=Top 40
TTITLE0=開放日
TTITLE1=如果只得一星期
TTITLE2=早知
TTITLE3=謝謝你等我
TTITLE4=前前後後 左左右右
TTITLE5=你情人在那裏
TTITLE6=入口愛情
TTITLE7=大世界
TTITLE8=天空這麼大
TTITLE9=活火山
TTITLE10=無聲仿有聲
EXTD=
EXTT0=
EXTT1=
EXTT2=
EXTT3=
EXTT4=
EXTT5=
EXTT6=
EXTT7=
EXTT8=
EXTT9=
EXTT10=
PLAYORDER=
